<svg preserveAspectRatio="none" width="100%" height="100%" overflow="visible" style="display: block;" viewBox="0 0 81.8896 34.0741" fill="none" xmlns="http://www.w3.org/2000/svg">
<path id="Logo" fill-rule="evenodd" clip-rule="evenodd" d="M81.8896 17.6057C81.8896 11.7826 79.069 7.18785 73.6779 7.18785C68.2641 7.18785 64.9885 11.7826 64.9885 17.5602C64.9885 24.4069 68.8555 27.8643 74.4058 27.8643C77.1127 27.8643 79.1599 27.2502 80.7067 26.3858V21.8365C79.1599 22.6099 77.3857 23.0876 75.1337 23.0876C72.9272 23.0876 70.971 22.3142 70.7208 19.6301H81.8441C81.8441 19.3344 81.8896 18.1516 81.8896 17.6057ZM70.6525 15.4448C70.6525 12.8744 72.2221 11.8054 73.6551 11.8054C75.0427 11.8054 76.5213 12.8744 76.5213 15.4448H70.6525ZM56.2081 7.18785C53.9789 7.18785 52.5458 8.23419 51.7497 8.96207L51.454 7.5518H46.4496V34.0741L52.1364 32.8685L52.1591 26.4313C52.978 27.0227 54.1836 27.8643 56.1854 27.8643C60.2571 27.8643 63.9649 24.5888 63.9649 17.3782C63.9421 10.7818 60.1889 7.18785 56.2081 7.18785ZM54.8433 22.8601C53.5012 22.8601 52.705 22.3824 52.1591 21.791L52.1364 13.3521C52.7278 12.6925 53.5467 12.2376 54.8433 12.2376C56.9133 12.2376 58.3463 14.5577 58.3463 17.5375C58.3463 20.5855 56.936 22.8601 54.8433 22.8601ZM38.6246 5.84582L44.3341 4.61751V0L38.6246 1.20556V5.84582ZM38.6246 7.57454H44.3341V27.4776H38.6246V7.57454ZM32.5056 9.25777L32.1417 7.57454H27.2283V27.4776H32.9151V13.989C34.2571 12.2376 36.5319 12.556 37.237 12.8062V7.57454C36.5091 7.30159 33.8477 6.80117 32.5056 9.25777ZM21.1321 2.63858L15.5818 3.82139L15.559 22.0412C15.559 25.4077 18.084 27.8871 21.4505 27.8871C23.3158 27.8871 24.6806 27.5459 25.4313 27.1364V22.5189C24.7034 22.8146 21.1093 23.8609 21.1093 20.4945V12.4195H25.4313V7.57454H21.1093L21.1321 2.63858ZM5.75502 13.3521C5.75502 12.465 6.48293 12.1238 7.68852 12.1238C9.4173 12.1238 11.601 12.647 13.3298 13.5796V8.23419C11.4418 7.48356 9.57653 7.18785 7.68852 7.18785C3.07086 7.18785 0 9.59897 0 13.6251C0 19.9031 8.6439 18.9022 8.6439 21.6091C8.6439 22.6554 7.73402 22.9966 6.46018 22.9966C4.57217 22.9966 2.16097 22.2232 0.250218 21.1769V26.5905C2.3657 27.5004 4.50393 27.8871 6.46018 27.8871C11.1916 27.8871 14.4444 25.5442 14.4444 21.4726C14.4217 14.6942 5.75502 15.8997 5.75502 13.3521Z" fill="var(--fill-0, #757575)"/>
</svg>
