<svg preserveAspectRatio="none" width="100%" height="100%" overflow="visible" style="display: block;" viewBox="0 0 1195.41 217.44" fill="none" xmlns="http://www.w3.org/2000/svg">
<g id="Acme corp">
<path id="Vector" d="M1064.01 217.44V45.6H1087.29V68.16L1083.33 65.04H1087.29C1091.29 58.8 1097.45 53.64 1105.77 49.56C1114.17 45.3999 1123.77 43.3199 1134.57 43.3199C1151.53 43.3199 1165.89 49.5199 1177.65 61.92C1189.49 74.32 1195.41 89.7999 1195.41 108.36C1195.41 127.56 1189.41 143.32 1177.41 155.64C1165.49 167.96 1150.85 174.12 1133.49 174.12C1123.57 174.12 1114.29 172.08 1105.65 168C1097.09 163.84 1090.77 158.16 1086.69 150.96L1088.37 152.28V217.44H1064.01ZM1129.05 151.92C1141.37 151.92 1151.49 148 1159.41 140.16C1167.41 132.24 1171.41 121.68 1171.41 108.48C1171.41 95.28 1167.37 84.76 1159.29 76.92C1151.29 69.08 1141.21 65.16 1129.05 65.16C1116.65 65.16 1106.57 69.36 1098.81 77.76C1091.13 86.08 1087.29 96.32 1087.29 108.48C1087.29 121.36 1091.25 131.84 1099.17 139.92C1107.09 147.92 1117.05 151.92 1129.05 151.92Z" fill="var(--fill-0, #444444)"/>
<path id="Vector_2" d="M981.741 171.84V45.6H1004.78V67.2L1003.46 65.4H1004.78C1009.34 57.8 1014.66 52.24 1020.74 48.72C1026.9 45.1199 1033.14 43.3199 1039.46 43.3199C1040.66 43.3199 1042.1 43.4399 1043.78 43.6799C1045.54 43.8399 1047.14 44.08 1048.58 44.4C1050.1 44.64 1050.86 44.76 1050.86 44.76V67.56C1050.86 67.56 1050.18 67.4 1048.82 67.08C1047.54 66.76 1045.86 66.5199 1043.78 66.3599C1041.7 66.12 1040.02 66 1038.74 66C1030.1 66 1022.5 69.28 1015.94 75.84C1009.38 82.32 1006.1 91.44 1006.1 103.2V171.84H981.741Z" fill="var(--fill-0, #444444)"/>
<path id="Vector_3" d="M896.492 174.12C877.852 174.12 862.252 167.72 849.692 154.92C837.212 142.12 830.972 126.72 830.972 108.72C830.972 90.8 837.212 75.44 849.692 62.64C862.252 49.7599 877.852 43.3199 896.492 43.3199C915.132 43.3199 930.772 49.7599 943.412 62.64C956.052 75.44 962.372 90.8 962.372 108.72C962.372 126.72 956.052 142.12 943.412 154.92C930.772 167.72 915.132 174.12 896.492 174.12ZM896.612 150.96C907.892 150.96 917.652 146.92 925.892 138.84C934.132 130.76 938.252 120.72 938.252 108.72C938.252 96.72 934.132 86.72 925.892 78.72C917.652 70.64 907.892 66.6 896.612 66.6C885.252 66.6 875.492 70.64 867.332 78.72C859.172 86.72 855.092 96.72 855.092 108.72C855.092 120.72 859.172 130.76 867.332 138.84C875.492 146.92 885.252 150.96 896.612 150.96Z" fill="var(--fill-0, #444444)"/>
<path id="Vector_4" d="M763.71 174.12C744.91 174.12 729.35 167.96 717.03 155.64C704.71 143.32 698.55 127.68 698.55 108.72C698.55 89.76 704.79 74.12 717.27 61.7999C729.75 49.4799 745.31 43.3199 763.95 43.3199C773.15 43.3199 781.19 44.6399 788.07 47.2799C794.95 49.92 800.99 53.52 806.19 58.0799C811.39 62.64 816.63 70.08 821.91 80.4L800.31 89.4C796.63 83.08 793.23 78.44 790.11 75.48C787.07 72.52 783.43 70.12 779.19 68.28C775.03 66.44 770.11 65.52 764.43 65.52C752.91 65.52 743.07 69.6 734.91 77.76C726.75 85.92 722.67 96.24 722.67 108.72C722.67 121.2 726.75 131.52 734.91 139.68C743.07 147.76 752.91 151.8 764.43 151.8C769.71 151.8 774.35 150.96 778.35 149.28C782.35 147.52 786.11 144.92 789.63 141.48C793.15 137.96 796.55 133.12 799.83 126.96L821.55 135.96C817.55 144.76 812.87 151.76 807.51 156.96C802.15 162.16 795.99 166.32 789.03 169.44C782.15 172.56 773.71 174.12 763.71 174.12Z" fill="var(--fill-0, #444444)"/>
<path id="Vector_5" d="M574.358 174.12C555.878 174.12 540.238 167.96 527.438 155.64C514.638 143.32 508.238 127.68 508.238 108.72C508.238 89.84 514.598 74.24 527.318 61.92C540.118 49.5199 555.518 43.3199 573.518 43.3199C592.158 43.3199 607.158 49.0799 618.518 60.6C629.878 72.12 635.558 86.6399 635.558 104.16V114.84H520.718V97.68H612.158C611.758 88.16 608.038 80.28 600.998 74.04C593.958 67.72 584.878 64.56 573.758 64.56C562.158 64.56 552.158 68.7999 543.758 77.2799C535.438 85.6799 531.278 96.28 531.278 109.08C531.278 122.12 535.638 132.76 544.358 141C553.158 149.16 563.198 153.24 574.478 153.24C580.478 153.24 585.758 152.4 590.318 150.72C594.878 149.04 598.958 146.56 602.558 143.28C606.238 140 609.958 135.24 613.718 129L632.918 138C628.358 146.8 623.358 153.72 617.918 158.76C612.478 163.8 606.238 167.64 599.198 170.28C592.238 172.84 583.958 174.12 574.358 174.12Z" fill="var(--fill-0, #444444)"/>
<path id="Vector_6" d="M302.522 171.84V45.6H326.402V67.32L323.882 64.8H326.402C330.242 58.48 335.602 53.32 342.482 49.32C349.442 45.3199 357.482 43.3199 366.602 43.3199C375.802 43.3199 384.002 45.7999 391.202 50.7599C398.482 55.72 403.122 61.7999 405.122 68.9999C410.162 60.5999 416.362 54.2399 423.722 49.92C431.082 45.5199 439.242 43.3199 448.202 43.3199C461.482 43.3199 471.962 47.5999 479.642 56.16C487.402 64.64 491.282 75.56 491.282 88.92V171.84H466.922V96.12C466.922 86.84 464.642 79.48 460.082 74.04C455.602 68.52 449.402 65.7599 441.482 65.7599C433.002 65.7599 425.482 68.96 418.922 75.36C412.362 81.68 409.082 90.0399 409.082 100.44V171.84H384.722V96.48C384.722 87.28 382.482 79.8399 378.002 74.16C373.602 68.4799 367.242 65.64 358.922 65.64C350.442 65.64 342.962 68.88 336.482 75.36C330.082 81.76 326.882 90.1199 326.882 100.44V171.84H302.522Z" fill="var(--fill-0, #444444)"/>
<path id="Vector_7" d="M227.46 174.12C208.66 174.12 193.1 167.96 180.78 155.64C168.46 143.32 162.3 127.68 162.3 108.72C162.3 89.76 168.54 74.12 181.02 61.7999C193.5 49.4799 209.06 43.3199 227.7 43.3199C236.9 43.3199 244.94 44.6399 251.82 47.2799C258.7 49.92 264.74 53.52 269.94 58.0799C275.14 62.64 280.38 70.08 285.66 80.4L264.06 89.4C260.38 83.08 256.98 78.44 253.86 75.48C250.82 72.52 247.18 70.12 242.94 68.28C238.78 66.44 233.86 65.52 228.18 65.52C216.66 65.52 206.82 69.6 198.66 77.76C190.5 85.92 186.42 96.24 186.42 108.72C186.42 121.2 190.5 131.52 198.66 139.68C206.82 147.76 216.66 151.8 228.18 151.8C233.46 151.8 238.1 150.96 242.1 149.28C246.1 147.52 249.86 144.92 253.38 141.48C256.9 137.96 260.3 133.12 263.58 126.96L285.3 135.96C281.3 144.76 276.62 151.76 271.26 156.96C265.9 162.16 259.74 166.32 252.78 169.44C245.9 172.56 237.46 174.12 227.46 174.12Z" fill="var(--fill-0, #444444)"/>
<path id="Vector_8" d="M0 171.84L68.28 0H92.4L160.56 171.84H132.72L80.4 36.72L79.8 35.28L79.2 36.72L26.76 171.84H0ZM31.08 128.52L38.28 108.36H121.32L128.76 128.52H31.08Z" fill="var(--fill-0, #444444)"/>
</g>
</svg>
