<svg preserveAspectRatio="none" width="100%" height="100%" overflow="visible" style="display: block;" viewBox="0 0 119 33.8948" fill="none" xmlns="http://www.w3.org/2000/svg">
<g id="Logo">
<path id="Vector" d="M12.8879 5.73703V15.2513H4.14703V5.73703H0V28.4489H4.14815V19.2434H12.8868V28.4489H17.036V5.73703H12.8879ZM30.3135 21.108C30.3135 22.0184 29.9519 22.8914 29.3081 23.5351C28.6644 24.1789 27.7914 24.5405 26.881 24.5405C25.9707 24.5405 25.0976 24.1789 24.4539 23.5351C23.8102 22.8914 23.4486 22.0184 23.4486 21.108V11.3794H19.5137V21.108C19.5137 23.06 20.2891 24.9321 21.6694 26.3123C23.0497 27.6926 24.9217 28.468 26.8737 28.468C28.8257 28.468 30.6978 27.6926 32.078 26.3123C33.4583 24.9321 34.2337 23.06 34.2337 21.108V11.3794H30.3135V21.108ZM59.4695 12.3819C59.4695 10.387 60.7886 9.75491 62.2335 9.75491C63.3988 9.75491 64.9368 10.6418 65.9438 11.7173L68.5202 8.67944C67.2337 6.93936 64.6247 5.73703 62.4883 5.73703C58.2189 5.73703 55.1317 8.23712 55.1317 12.3819C55.1317 20.0719 64.5304 17.6313 64.5304 21.9354C64.5304 23.2624 63.2416 24.4344 61.7665 24.4344C59.4392 24.4344 58.6848 23.2972 57.6161 22.0937L54.7556 25.0676C56.5855 27.3128 58.842 28.4534 61.5442 28.4534C65.6003 28.4534 68.8627 25.923 68.8627 21.9669C68.8627 13.4304 59.4628 16.0832 59.4628 12.3819M117.615 24.8206C115.29 24.8206 114.629 23.8147 114.629 22.2745V15.4545H118.244V11.999H114.629V7.44006L110.639 9.23065V23.122C110.639 26.6752 113.091 28.4658 116.452 28.4658C116.98 28.4747 117.508 28.4321 118.026 28.34L119 24.7566C118.561 24.7869 118.057 24.8172 117.615 24.8172M45.2917 11.4927C43.3428 11.4927 41.9822 12.0585 40.6665 13.3484V5.87287H36.726V19.7295C36.726 24.916 40.4756 28.4702 44.69 28.4702C49.3647 28.4702 53.4769 24.8531 53.4769 19.9832C53.4769 15.1738 49.6925 11.4961 45.2917 11.4961M45.267 24.504C44.6798 24.504 44.0982 24.3883 43.5557 24.1636C43.0131 23.9389 42.5201 23.6094 42.1048 23.1942C41.6896 22.7789 41.3602 22.2859 41.1354 21.7434C40.9107 21.2008 40.795 20.6193 40.795 20.032C40.795 19.4447 40.9107 18.8632 41.1354 18.3207C41.3602 17.7781 41.6896 17.2851 42.1048 16.8698C42.5201 16.4546 43.0131 16.1252 43.5557 15.9004C44.0982 15.6757 44.6798 15.56 45.267 15.56C46.4531 15.56 47.5906 16.0312 48.4292 16.8698C49.2679 17.7085 49.7391 18.846 49.7391 20.032C49.7391 21.2181 49.2679 22.3555 48.4292 23.1942C47.5906 24.0328 46.4531 24.504 45.267 24.504M88.0867 19.7766C88.0867 14.8977 83.9835 11.2895 79.2998 11.2895C75.0866 11.2895 71.3358 14.8427 71.3358 20.0303V33.8948H75.2763V26.4091C76.5898 27.6968 77.9527 28.2648 79.8993 28.2648C84.3001 28.2648 88.0856 24.5871 88.0856 19.7766M84.3551 19.7272C84.3551 20.9133 83.8839 22.0507 83.0452 22.8894C82.2066 23.7281 81.0691 24.1992 79.883 24.1992C78.697 24.1992 77.5595 23.7281 76.7208 22.8894C75.8822 22.0507 75.411 20.9133 75.411 19.7272C75.411 18.5412 75.8822 17.4037 76.7208 16.565C77.5595 15.7264 78.697 15.2552 79.883 15.2552C81.0691 15.2552 82.2066 15.7264 83.0452 16.565C83.8839 17.4037 84.3551 18.5412 84.3551 19.7272" fill="var(--fill-0, #757575)"/>
<path id="Vector_2" d="M100.779 10.9479V6.98836C101.302 6.74381 101.746 6.35569 102.057 5.86916C102.368 5.38264 102.535 4.81772 102.537 4.24016V4.14923C102.537 2.46529 101.172 1.10017 99.4882 1.10017H99.3973C98.5886 1.10017 97.8131 1.42141 97.2413 1.99322C96.6694 2.56503 96.3482 3.34057 96.3482 4.14923V4.24016C96.3509 4.81772 96.5175 5.38264 96.8288 5.86916C97.14 6.35569 97.583 6.74381 98.1063 6.98836V10.9479C96.6024 11.1781 95.1861 11.8016 94.0008 12.7553L83.1415 4.29742C83.2189 4.01788 83.2594 3.73049 83.2638 3.44198C83.2652 2.76246 83.0649 2.0978 82.6885 1.53209C82.312 0.966384 81.7762 0.525031 81.1489 0.263862C80.5216 0.00269194 79.8309 -0.0665606 79.1642 0.0648638C78.4975 0.196288 77.8847 0.522485 77.4034 1.00219C76.9222 1.4819 76.594 2.09357 76.4604 2.75983C76.3268 3.42609 76.3938 4.117 76.6529 4.74518C76.912 5.37336 77.3516 5.91058 77.9161 6.28889C78.4806 6.66719 79.1446 6.86959 79.8241 6.87048C80.4186 6.86768 81.0019 6.70897 81.5159 6.4102L92.209 14.7311C91.2484 16.1823 90.7473 17.8892 90.7709 19.6294C90.7945 21.3695 91.3418 23.0622 92.3415 24.4868L89.0892 27.7401C88.8263 27.6561 88.5524 27.6114 88.2764 27.6077C87.7186 27.6081 87.1735 27.7739 86.7099 28.0841C86.2463 28.3942 85.8851 28.8348 85.6718 29.3503C85.4586 29.8657 85.4029 30.4327 85.5118 30.9798C85.6207 31.5268 85.8894 32.0293 86.2838 32.4237C86.6782 32.8181 87.1807 33.0867 87.7277 33.1957C88.2748 33.3046 88.8418 33.2489 89.3573 33.0357C89.8727 32.8224 90.3133 32.4612 90.6235 31.9976C90.9336 31.534 91.0994 30.9889 91.0999 30.4311C91.0962 30.1551 91.0516 29.8812 90.9674 29.6183L94.1849 26.3997C95.2341 27.2075 96.4542 27.7643 97.7519 28.0277C99.0496 28.291 100.39 28.2538 101.671 27.919C102.952 27.5841 104.14 26.9605 105.143 26.0958C106.145 25.2312 106.937 24.1485 107.457 22.9306C107.977 21.7128 108.211 20.3922 108.141 19.0699C108.072 17.7476 107.7 16.4588 107.056 15.3022C106.411 14.1455 105.511 13.1518 104.423 12.397C103.335 11.6423 102.088 11.1466 100.779 10.9479M99.4456 23.9703C98.8509 23.9867 98.2591 23.8837 97.7049 23.6675C97.1508 23.4512 96.6456 23.1261 96.2192 22.7113C95.7928 22.2965 95.4539 21.8005 95.2225 21.2525C94.9911 20.7045 94.8719 20.1157 94.8719 19.5208C94.8719 18.926 94.9911 18.3372 95.2225 17.7892C95.4539 17.2412 95.7928 16.7451 96.2192 16.3303C96.6456 15.9155 97.1508 15.5904 97.7049 15.3742C98.2591 15.1579 98.8509 15.0549 99.4456 15.0713C100.598 15.1116 101.69 15.5977 102.491 16.427C103.292 17.2564 103.74 18.3644 103.741 19.5175C103.742 20.6707 103.295 21.7791 102.494 22.6093C101.694 23.4394 100.602 23.9266 99.4501 23.9681" fill="var(--fill-0, #757575)"/>
</g>
</svg>
