<svg preserveAspectRatio="none" width="100%" height="100%" overflow="visible" style="display: block;" viewBox="0 0 122.98 28.4604" fill="none" xmlns="http://www.w3.org/2000/svg">
<path id="Vector" d="M0 1.68032H7.98161C13.0751 1.68032 17.276 4.62088 17.276 11.3422V12.7599C17.276 19.5337 13.3377 22.5793 8.13915 22.5793H0V1.68032ZM4.4634 5.46104V18.7461H7.87659C10.7647 18.7461 12.7076 16.8557 12.7076 12.6549V11.5522C12.7076 7.35141 10.6597 5.46104 7.71906 5.46104H4.4634ZM19.639 5.67108H23.2097L23.7873 9.60934C24.47 6.93133 26.2028 5.51355 29.3534 5.51355H30.4562V10.0294H28.6183C24.9951 10.0294 24.1024 11.2897 24.1024 14.8603V22.6318H19.6915V5.67108H19.639ZM31.3488 14.4928V14.0202C31.3488 8.3491 34.9721 5.251 39.9081 5.251C44.9491 5.251 48.4673 8.3491 48.4673 14.0202V14.4928C48.4673 20.0588 45.0541 23.0519 39.9081 23.0519C34.447 22.9994 31.3488 20.0588 31.3488 14.4928V14.4928ZM43.9514 14.4403V14.0202C43.9514 10.8696 42.3761 8.97922 39.8556 8.97922C37.3876 8.97922 35.7597 10.712 35.7597 14.0202V14.4403C35.7597 17.4858 37.335 19.2187 39.8556 19.2187C42.3761 19.1662 43.9514 17.4858 43.9514 14.4403ZM50.7778 5.67108H54.4535L54.8736 8.8742C55.7663 6.72129 57.6567 5.251 60.4397 5.251C64.7456 5.251 67.5812 8.3491 67.5812 14.0727V14.5453C67.5812 20.1113 64.4305 23.0519 60.4397 23.0519C57.7617 23.0519 55.9238 21.8442 55.0311 19.9013V28.4604H50.7253L50.7778 5.67108ZM63.1178 14.4403V14.0727C63.1178 10.712 61.3849 9.03173 59.0744 9.03173C56.6064 9.03173 54.9786 10.9221 54.9786 14.0727V14.3878C54.9786 17.3808 56.5539 19.2712 59.0219 19.2712C61.5424 19.2187 63.1178 17.5909 63.1178 14.4403ZM74.0925 19.4812L73.7249 22.5793H69.9441V0H74.25V8.66416C75.1952 6.45874 77.0856 5.251 79.7636 5.251C83.8069 5.30351 86.8001 8.08655 86.8001 13.7051V14.2302C86.8001 19.8488 83.9645 23.0519 79.6586 23.0519C76.823 22.9994 74.9852 21.6866 74.0925 19.4812V19.4812ZM82.2841 14.2302V13.8101C82.2841 10.712 80.6038 8.97922 78.2408 8.97922C75.8253 8.97922 74.145 10.9221 74.145 13.8627V14.2302C74.145 17.3808 75.7728 19.2187 78.1883 19.2187C80.7613 19.2187 82.2841 17.5909 82.2841 14.2302V14.2302ZM88.6904 14.4928V14.0202C88.6904 8.3491 92.3137 5.251 97.2497 5.251C102.291 5.251 105.809 8.3491 105.809 14.0202V14.4928C105.809 20.0588 102.343 23.0519 97.2497 23.0519C91.7886 22.9994 88.6904 20.0588 88.6904 14.4928V14.4928ZM101.345 14.4403V14.0202C101.345 10.8696 99.7702 8.97922 97.2497 8.97922C94.7817 8.97922 93.1538 10.712 93.1538 14.0202V14.4403C93.1538 17.4858 94.7292 19.2187 97.2497 19.2187C99.7702 19.1662 101.345 17.4858 101.345 14.4403ZM111.585 13.8101L105.651 5.67108H110.745L114.158 10.7646L117.624 5.67108H122.665L116.626 13.7576L122.98 22.5793H117.991L114.106 16.9607L110.325 22.5793H105.126L111.585 13.8101Z" fill="var(--fill-0, #757575)"/>
</svg>
