<svg preserveAspectRatio="none" width="100%" height="100%" overflow="visible" style="display: block;" viewBox="0 0 16.666 16.666" fill="none" xmlns="http://www.w3.org/2000/svg">
<path id="Subtract" d="M9.78613 0C12.1944 0 13.3985 7.79967e-05 14.3184 0.46875C15.1274 0.880999 15.785 1.5386 16.1973 2.34766C16.6659 3.26748 16.666 4.47166 16.666 6.87988V9.78613C16.666 12.1944 16.6659 13.3985 16.1973 14.3184C15.785 15.1274 15.1274 15.785 14.3184 16.1973C13.3985 16.6659 12.1944 16.666 9.78613 16.666H6.87988C4.47166 16.666 3.26748 16.6659 2.34766 16.1973C1.5386 15.785 0.880999 15.1274 0.46875 14.3184C7.79967e-05 13.3985 0 12.1944 0 9.78613V6.87988C0 4.47166 7.79967e-05 3.26748 0.46875 2.34766C0.880998 1.5386 1.5386 0.880998 2.34766 0.46875C3.26748 7.79967e-05 4.47166 0 6.87988 0H9.78613ZM8.09473 2.38086C6.0948 2.38086 5.09498 2.38133 4.33105 2.77051C3.65905 3.11291 3.11194 3.65905 2.76953 4.33105C2.38044 5.09494 2.38086 6.09507 2.38086 8.09473V8.57129C2.38086 10.5715 2.38027 11.572 2.76953 12.3359C3.11194 13.0079 3.65909 13.5541 4.33105 13.8965C5.09495 14.2856 6.09498 14.2852 8.09473 14.2852H8.57129C10.571 14.2852 11.5711 14.2855 12.335 13.8965C13.0069 13.5541 13.5541 13.0079 13.8965 12.3359C14.2857 11.572 14.2852 10.5715 14.2852 8.57129V8.09473C14.2852 6.09505 14.2856 5.09494 13.8965 4.33105C13.5541 3.65905 13.007 3.11291 12.335 2.77051C11.571 2.38135 10.5712 2.38086 8.57129 2.38086H8.09473ZM8.57129 3.57129C9.59094 3.57129 10.2845 3.57243 10.8203 3.61621C11.342 3.65886 11.6088 3.73621 11.7949 3.83105C12.2428 4.05926 12.6067 4.4233 12.835 4.87109C12.9298 5.05728 13.0072 5.32476 13.0498 5.84668C13.0936 6.38239 13.0947 7.07538 13.0947 8.09473V8.57129C13.0947 9.59103 13.0936 10.2845 13.0498 10.8203C13.0072 11.3421 12.9298 11.6088 12.835 11.7949C12.6067 12.2429 12.2429 12.6077 11.7949 12.8359C11.6088 12.9308 11.3419 13.0081 10.8203 13.0508C10.2845 13.0946 9.59094 13.0947 8.57129 13.0947H8.09473C7.07511 13.0947 6.38149 13.0946 5.8457 13.0508C5.32414 13.0081 5.05723 12.9308 4.87109 12.8359C4.42309 12.6077 4.05932 12.2429 3.83105 11.7949C3.7362 11.6088 3.65886 11.3421 3.61621 10.8203C3.57243 10.2845 3.57129 9.59103 3.57129 8.57129V8.09473C3.57129 7.07539 3.57246 6.38239 3.61621 5.84668C3.65885 5.32476 3.73619 5.05728 3.83105 4.87109C4.05931 4.42331 4.42328 4.05926 4.87109 3.83105C5.05723 3.73622 5.3241 3.65886 5.8457 3.61621C6.38149 3.57244 7.07511 3.57129 8.09473 3.57129H8.57129ZM8.33301 5.35742C6.68939 5.35744 5.35657 6.68942 5.35645 8.33301C5.35645 9.9767 6.68932 11.3096 8.33301 11.3096C9.97671 11.3096 11.3096 9.97671 11.3096 8.33301C11.3094 6.68941 9.97663 5.35742 8.33301 5.35742ZM8.33301 6.54785C9.31915 6.54785 10.119 7.34689 10.1191 8.33301C10.1191 9.31923 9.31923 10.1191 8.33301 10.1191C7.3468 10.1191 6.54688 9.31922 6.54688 8.33301C6.547 7.3469 7.34688 6.54787 8.33301 6.54785ZM11.6064 4.16699C11.1135 4.16721 10.7139 4.56659 10.7139 5.05957C10.7139 5.55248 11.1136 5.95193 11.6064 5.95215C12.0995 5.95215 12.4999 5.55262 12.5 5.05957C12.5 4.56646 12.0996 4.16699 11.6064 4.16699Z" fill="var(--fill-0, #F7F9FC)"/>
</svg>
